<svg xmlns="http://www.w3.org/2000/svg" width="14.197" height="17.309" viewBox="0 0 14.197 17.309"><defs><style>.a{fill:#c5b295;}</style></defs><path class="a" d="M50.729,131.279c-2.576-.015-4.707-5.273-4.707-7.951,0-4.375,3.282-5.332,4.546-5.332a5.231,5.231,0,0,1,1.715.422,3.834,3.834,0,0,0,.98.281,3.048,3.048,0,0,0,.7-.228,5.632,5.632,0,0,1,2.118-.512h0a4.341,4.341,0,0,1,3.633,1.835l.265.4-.381.288a3.209,3.209,0,0,0-1.539,2.646,2.986,2.986,0,0,0,1.666,2.761c.239.144.486.292.486.616,0,.211-1.688,4.752-4.138,4.752a3.328,3.328,0,0,1-1.4-.339,2.834,2.834,0,0,0-1.244-.3,3.2,3.2,0,0,0-.985.266,4.823,4.823,0,0,1-1.708.4Z" transform="translate(-46.022 -113.97)"/><path class="a" d="M258.406,0c.064,2.3-1.582,3.9-3.226,3.8A3.667,3.667,0,0,1,258.406,0Z" transform="translate(-248.084)"/></svg>