<svg xmlns="http://www.w3.org/2000/svg" width="111.515" height="109.756" viewBox="0 0 111.515 109.756"><defs><style>.a{fill:#c5b295;}</style></defs><g transform="translate(-1087.072 -276.494)"><path class="a" d="M1128.459,282.8l-.365-.078,1.064-4.934a1.081,1.081,0,0,0-.04-.717.78.78,0,0,0-.583-.377l-.092-.017.04-.184.594.129a1.7,1.7,0,0,1,.682.29,1.554,1.554,0,0,1,.432.523l2.338,4.666.977-4.522.367.079-1.324,6.121-.182-.039L1129.495,278Z" transform="translate(22.884 0)"/><path class="a" d="M1135.9,280.556c-.023-.173-.156-.31-.4-.41l-.173-.07.07-.173.779.318a1.17,1.17,0,0,1,.447.277.519.519,0,0,1,.109.393,2.549,2.549,0,0,1-.2.685l-1.234,3.032-.779-.319,1.232-3.03A1.464,1.464,0,0,0,1135.9,280.556Zm.544-1.025a.617.617,0,0,1,.015-.447.416.416,0,0,1,.223-.243.438.438,0,0,1,.333.016.476.476,0,0,1,.276.3.625.625,0,0,1-.017.447.4.4,0,0,1-.223.241.438.438,0,0,1-.333-.014A.466.466,0,0,1,1136.439,279.53Z" transform="translate(26.468 1.294)"/><path class="a" d="M1137.855,286.672a1.2,1.2,0,0,1,.09-1.232,1.087,1.087,0,0,1,.634-.491,1.706,1.706,0,0,1,.874-.02.62.62,0,0,1-.031-.673.435.435,0,0,1,.221-.2,1.361,1.361,0,0,1,.324-.067,1.248,1.248,0,0,1-.187-.659,1.366,1.366,0,0,1,.214-.745q.722-1.2,2.243-.285l1.482.891-.12.2-.568-.234-.025.04a1.237,1.237,0,0,1,.19.6,1.046,1.046,0,0,1-.157.617q-.725,1.2-2.246.287c-.559-.336-.9-.413-1.008-.226s.111.449.672.787a2.753,2.753,0,0,1,1.084,1.073,1.341,1.341,0,0,1-1.114,1.885,3.418,3.418,0,0,1-2.571-1.545Zm2.2.978a.981.981,0,0,0,.7-.523q.481-.8-.407-1.5l-.416-.3a1.313,1.313,0,0,0-.721.056,1.125,1.125,0,0,0-.539.5.985.985,0,0,0-.135.862,1.616,1.616,0,0,0,1.522.914Zm1.622-3.1a1.406,1.406,0,0,0,.835-1.391.889.889,0,0,0-.441-.581.923.923,0,0,0-.712-.129,1.438,1.438,0,0,0-.844,1.4,1.024,1.024,0,0,0,1.162.7Z" transform="translate(28.257 3.016)"/><path class="a" d="M1146.6,284.7a.551.551,0,0,0-.241-.517l-.142-.123.123-.14.634.556a1.2,1.2,0,0,1,.332.41.515.515,0,0,1-.028.4,2.463,2.463,0,0,1-.413.584l-.678.771a1.709,1.709,0,0,1,.6.087,1.762,1.762,0,0,1,.62.365,1.7,1.7,0,0,1,.612,1.038,1.634,1.634,0,0,1-.528,1.276l-1.851,2.106-.633-.555,1.851-2.108a1.337,1.337,0,0,0,.411-.914.978.978,0,0,0-.352-.712,1.256,1.256,0,0,0-1.03-.245l-2.354,2.684-.634-.556,3.331-3.792A1.442,1.442,0,0,0,1146.6,284.7Z" transform="translate(31.145 4.14)"/><path class="a" d="M1147.381,292.745a1.238,1.238,0,0,1,.52-.812l2.242-1.834-.413-.508.288-.235.414.506.651-.533.731.006.237.291-1.086.886.71.869-.29.235-.71-.868-2.242,1.834c-.436.357-.514.7-.239,1.039a1.265,1.265,0,0,0,.276.263,1.688,1.688,0,0,0,.313.162l-.086.19a2.175,2.175,0,0,1-.508-.2,1.88,1.88,0,0,1-.522-.469A1.107,1.107,0,0,1,1147.381,292.745Z" transform="translate(33.641 7.161)"/><path class="a" d="M1153.146,294.081a.74.74,0,0,0-.075-.592l.171-.093c.016.026.039.067.075.118a1.788,1.788,0,0,1,.1.16,1.567,1.567,0,0,1,.2.907,1.9,1.9,0,0,1-.489,1.006l-1.343,1.637,2.144-.265a2.49,2.49,0,0,0,.413-.709.687.687,0,0,0-.062-.547l.171-.092c.016.026.041.067.075.118a1.626,1.626,0,0,1,.1.159,1.6,1.6,0,0,1,.2.907,1.893,1.893,0,0,1-.489,1.006l-1.343,1.637,3.248-.386.223.41-4.811.547-.089-.164,1.983-2.413-3.1.361-.09-.164,2.346-2.824A2.324,2.324,0,0,0,1153.146,294.081Z" transform="translate(35.303 9.429)"/><path class="a" d="M1156.715,301.186a.552.552,0,0,0,.052-.569l-.058-.179.176-.058.265.8a1.165,1.165,0,0,1,.08.52.522.522,0,0,1-.228.336,2.491,2.491,0,0,1-.651.293l-3.106,1.03-.265-.8,3.106-1.03A1.47,1.47,0,0,0,1156.715,301.186Zm1.133-.252a.6.6,0,0,1,.35-.279.411.411,0,0,1,.329.014.424.424,0,0,1,.206.262.475.475,0,0,1-.053.407.612.612,0,0,1-.35.277.4.4,0,0,1-.33-.014.436.436,0,0,1-.2-.262A.469.469,0,0,1,1157.847,300.934Z" transform="translate(36.767 13.326)"/><path class="a" d="M1154.3,305.98a.7.7,0,0,1,.322-.254,3.952,3.952,0,0,1,.606-.142l.033.185a1.132,1.132,0,0,0-.645.523,1.419,1.419,0,0,0-.1.932,1.365,1.365,0,0,0,.305.729.553.553,0,0,0,.516.173.629.629,0,0,0,.425-.276,2.009,2.009,0,0,0,.26-.695l.136-.594a2.385,2.385,0,0,1,.374-.918,1.133,1.133,0,0,1,1.633-.128,1.819,1.819,0,0,1,.506,1.042,1.989,1.989,0,0,1-.132,1.446.664.664,0,0,1-.316.252,3.513,3.513,0,0,1-.612.143l-.03-.184a1.121,1.121,0,0,0,.647-.509,1.335,1.335,0,0,0,.106-.9,1.121,1.121,0,0,0-.294-.647.558.558,0,0,0-.507-.165q-.479.082-.657.871l-.135.594a2.839,2.839,0,0,1-.393,1,1.106,1.106,0,0,1-1.65.111,1.987,1.987,0,0,1-.517-1.106A2.088,2.088,0,0,1,1154.3,305.98Z" transform="translate(37.397 16.028)"/><path class="a" d="M1160.462,311.293a.548.548,0,0,0,.237-.52l0-.187.187,0-.013.841a1.142,1.142,0,0,1-.1.517.521.521,0,0,1-.326.245,2.5,2.5,0,0,1-.712.062l-1.028-.017a1.619,1.619,0,0,1,.324.514,1.787,1.787,0,0,1,.125.709,1.72,1.72,0,0,1-.393,1.139,1.637,1.637,0,0,1-1.316.422l-2.8-.045.014-.841,2.8.045a1.336,1.336,0,0,0,.963-.279.98.98,0,0,0,.315-.729,1.256,1.256,0,0,0-.478-.942l-3.57-.058.014-.841,5.046.083A1.481,1.481,0,0,0,1160.462,311.293Z" transform="translate(37.698 19.018)"/><path class="a" d="M1159.175,317.363l-.143.922-2.451-.664.058-.371Z" transform="translate(38.776 22.737)"/><path class="a" d="M1153.989,320.811a.666.666,0,0,1,.4-.081,3.625,3.625,0,0,1,.606.15l-.057.178a1.147,1.147,0,0,0-.812.173,1.4,1.4,0,0,0-.512.785,1.372,1.372,0,0,0-.061.79.553.553,0,0,0,.38.386.632.632,0,0,0,.5-.053,2.025,2.025,0,0,0,.548-.5l.389-.466a2.3,2.3,0,0,1,.749-.648,1.126,1.126,0,0,1,1.513.626,1.812,1.812,0,0,1-.022,1.157,1.983,1.983,0,0,1-.774,1.228.668.668,0,0,1-.4.083,3.658,3.658,0,0,1-.607-.151l.054-.178a1.116,1.116,0,0,0,.807-.159,1.342,1.342,0,0,0,.5-.754,1.138,1.138,0,0,0,.03-.71.565.565,0,0,0-.377-.377q-.463-.145-.98.48l-.391.464a2.779,2.779,0,0,1-.805.718,1.109,1.109,0,0,1-1.521-.65,2.009,2.009,0,0,1,.041-1.22A2.077,2.077,0,0,1,1153.989,320.811Z" transform="translate(36.825 24.674)"/><path class="a" d="M1153.231,333.233l-.523.774-1.933-1.648.21-.31Zm.84-1.237-.525.773-1.932-1.648.209-.31Z" transform="translate(35.536 30.301)"/><path class="a" d="M1151.97,337.48a.555.555,0,0,0,.531-.212l.131-.132.132.131-.59.6a1.218,1.218,0,0,1-.428.307.519.519,0,0,1-.4-.05,2.564,2.564,0,0,1-.558-.446l-1.2-1.184-1.972,1.994,2,1.972-.592.6-3.589-3.549a1.484,1.484,0,0,0-.6-.4.548.548,0,0,0-.53.21l-.133.134-.132-.132.59-.6a1.168,1.168,0,0,1,.428-.307.519.519,0,0,1,.4.05,2.477,2.477,0,0,1,.559.447l1.329,1.313,1.971-2-2.128-2.1.59-.6,3.591,3.547A1.462,1.462,0,0,0,1151.97,337.48Z" transform="translate(31.78 31.817)"/><path class="a" d="M1142.4,338.257a1.639,1.639,0,0,1,1.1.837l.941,1.394a1.47,1.47,0,0,0,.5.511.553.553,0,0,0,.564-.1l.076-.053.1.156-.62.419a1.151,1.151,0,0,1-.478.215.517.517,0,0,1-.386-.128,2.488,2.488,0,0,1-.459-.547l-.943-1.394a1.341,1.341,0,0,0-.781-.628.98.98,0,0,0-.779.157,1.269,1.269,0,0,0-.5.935l2,2.958-.7.47-2.458-3.641.386-.26.482.126.039-.025a1.629,1.629,0,0,1,.235-.562,1.786,1.786,0,0,1,.508-.506A1.728,1.728,0,0,1,1142.4,338.257Z" transform="translate(29.296 34.45)"/><path class="a" d="M1139.99,344.663a.553.553,0,0,0,.57.014l.174-.07.07.173-.779.316a1.176,1.176,0,0,1-.525.112.574.574,0,0,1-.352-.159l-.044.017a1.611,1.611,0,0,1-.347.5,1.749,1.749,0,0,1-.6.391,1.455,1.455,0,0,1-.678.12,1.044,1.044,0,0,1-.608-.3,1.664,1.664,0,0,1-.394.679,1.837,1.837,0,0,1-.659.455,1.255,1.255,0,0,1-1.024.012,1.882,1.882,0,0,1-.821-1.078l-1.058-2.6.781-.318,1.056,2.6a1.879,1.879,0,0,0,.537.827.624.624,0,0,0,.631.061,1.015,1.015,0,0,0,.438-.385,1.413,1.413,0,0,0,.241-.548,2.68,2.68,0,0,1-.288-.589l-1.058-2.6.779-.318,1.058,2.6a1.883,1.883,0,0,0,.536.826.624.624,0,0,0,.633.061,1.258,1.258,0,0,0,.678-.81l-1.344-3.307.779-.318,1.232,3.03A1.475,1.475,0,0,0,1139.99,344.663Z" transform="translate(25.573 36)"/><path class="a" d="M1130.2,343.435a1.265,1.265,0,0,1,.594.313,1.235,1.235,0,0,1,.355.714,1.03,1.03,0,0,1-.466,1.112,4.212,4.212,0,0,1-1.642.608l-.274.05a2.23,2.23,0,0,0,.474,1.187.857.857,0,0,0,.779.2,1.143,1.143,0,0,0,.631-.3,1,1,0,0,0,.237-.67l.414-.076a2.623,2.623,0,0,1,.053.5.682.682,0,0,1-.131.372,1.082,1.082,0,0,1-.5.343,4.115,4.115,0,0,1-.819.232,1.694,1.694,0,0,1-1.251-.184,2.107,2.107,0,0,1-.714-1.45l-.456-2.482.46-.086.4.355.047-.008a1.3,1.3,0,0,1,.42-.449,1.976,1.976,0,0,1,.773-.294A1.614,1.614,0,0,1,1130.2,343.435Zm-1.436.715a1.54,1.54,0,0,0-.294.474l.229,1.24.276-.05a2.047,2.047,0,0,0,1.03-.45.777.777,0,0,0,.271-.74.836.836,0,0,0-.372-.6.925.925,0,0,0-.662-.111A.854.854,0,0,0,1128.762,344.15Z" transform="translate(22.542 37.322)"/><path class="a" d="M1125.38,348.02a.546.546,0,0,0,.526.221l.187,0,0,.187-.841.014a1.191,1.191,0,0,1-.53-.086.569.569,0,0,1-.271-.276h-.045a1.637,1.637,0,0,1-.5.341,1.774,1.774,0,0,1-.7.146,1.731,1.731,0,0,1-1.151-.355,1.636,1.636,0,0,1-.464-1.3l-.045-2.8.841-.013.045,2.8a1.334,1.334,0,0,0,.31.953.979.979,0,0,0,.739.291,1.256,1.256,0,0,0,.927-.511l-.058-3.569.841-.014.051,3.271A1.47,1.47,0,0,0,1125.38,348.02Z" transform="translate(19.228 37.684)"/><path class="a" d="M1118.315,343.817a.445.445,0,0,1,.1.366.552.552,0,0,1-.206.346.463.463,0,0,1-.706-.109.547.547,0,0,1-.087-.391.439.439,0,0,1,.2-.319.549.549,0,0,1,.7.108Z" transform="translate(16.922 37.451)"/><path class="a" d="M1109.413,344.737a.362.362,0,0,1,.008.351.626.626,0,0,1-.3.3.446.446,0,0,1-.4.033.432.432,0,0,1-.251-.321.652.652,0,0,1,.026-.422.369.369,0,0,1,.26-.232.613.613,0,0,1,.372.051A.6.6,0,0,1,1109.413,344.737Zm1.4-3.153a.438.438,0,0,1,0,.377.549.549,0,0,1-.288.282.463.463,0,0,1-.393.011.479.479,0,0,1-.266-.3.545.545,0,0,1,.016-.4.433.433,0,0,1,.276-.257.53.53,0,0,1,.386.027A.523.523,0,0,1,1110.813,341.584Z" transform="translate(11.924 36.135)"/><path class="a" d="M1107.276,339.722a.513.513,0,0,1,.042.405,2.58,2.58,0,0,1-.308.643l-2.648,4.3-.715-.441,2.647-4.3a1.488,1.488,0,0,0,.259-.668.555.555,0,0,0-.326-.471l-.161-.1.1-.16.717.441A1.18,1.18,0,0,1,1107.276,339.722Z" transform="translate(9.246 34.831)"/><path class="a" d="M1103.892,337.207a.516.516,0,0,1-.014.407,2.6,2.6,0,0,1-.394.6l-3.214,3.892-.648-.536,3.212-3.891a1.467,1.467,0,0,0,.348-.628.544.544,0,0,0-.257-.509l-.145-.118.12-.145.65.536A1.166,1.166,0,0,1,1103.892,337.207Z" transform="translate(7.001 33.349)"/><path class="a" d="M1098.051,336.5a.368.368,0,0,1-.133.326.631.631,0,0,1-.392.159.431.431,0,0,1-.382-.131.436.436,0,0,1-.106-.393.668.668,0,0,1,.193-.377.365.365,0,0,1,.332-.109.677.677,0,0,1,.488.525Zm2.536-2.335a.44.44,0,0,1-.151.344.551.551,0,0,1-.375.143.464.464,0,0,1-.366-.145.476.476,0,0,1-.125-.382.56.56,0,0,1,.173-.365.442.442,0,0,1,.357-.125.539.539,0,0,1,.343.178A.52.52,0,0,1,1100.587,334.167Z" transform="translate(5.555 31.877)"/><path class="a" d="M1096.874,328.18l.161.338-4.56,2.164a1.084,1.084,0,0,0-.542.469.781.781,0,0,0,.059.692l.039.084-.168.079-.26-.547a1.7,1.7,0,0,1-.187-.72,1.569,1.569,0,0,1,.151-.662l2.273-4.7-4.18,1.983-.162-.338,5.66-2.684.08.17-2.795,5.775Z" transform="translate(1.353 26.691)"/><path class="a" d="M1093.475,321.612a1.269,1.269,0,0,1-.274.614,1.249,1.249,0,0,1-.688.4,1.039,1.039,0,0,1-1.142-.391,4.194,4.194,0,0,1-.712-1.6l-.07-.273a2.227,2.227,0,0,0-1.151.552.859.859,0,0,0-.148.79,1.137,1.137,0,0,0,.338.609.99.99,0,0,0,.684.193l.1.408a2.683,2.683,0,0,1-.5.086.675.675,0,0,1-.379-.106,1.087,1.087,0,0,1-.375-.48,4.138,4.138,0,0,1-.285-.8,1.688,1.688,0,0,1,.1-1.26,2.11,2.11,0,0,1,1.4-.809l2.447-.618.114.453-.327.421.011.045a1.292,1.292,0,0,1,.475.391,1.968,1.968,0,0,1,.344.751A1.639,1.639,0,0,1,1093.475,321.612Zm-.81-1.387a1.547,1.547,0,0,0-.489-.262l-1.223.31.069.273a2.007,2.007,0,0,0,.517,1,.777.777,0,0,0,.755.223.829.829,0,0,0,.575-.41.918.918,0,0,0,.067-.668A.848.848,0,0,0,1092.664,320.226Z" transform="translate(0.968 23.674)"/><path class="a" d="M1092.688,315.827a1.262,1.262,0,0,1-.888.375l-2.887.246.056.653-.372.031-.056-.653-.838.072-.6-.416-.033-.372,1.4-.122-.1-1.115.372-.033.1,1.117,2.888-.246c.558-.05.818-.29.781-.724a1.31,1.31,0,0,0-.078-.372,1.688,1.688,0,0,0-.168-.31l.179-.109a2.186,2.186,0,0,1,.305.452,1.832,1.832,0,0,1,.167.681A1.119,1.119,0,0,1,1092.688,315.827Z" transform="translate(0 20.838)"/><path class="a" d="M1092.022,311.625a1.636,1.636,0,0,1-1.341.338l-1.676-.133a1.472,1.472,0,0,0-.713.075.553.553,0,0,0-.271.5l-.008.092-.186-.014.059-.745a1.18,1.18,0,0,1,.129-.511.507.507,0,0,1,.341-.221,2.5,2.5,0,0,1,.714-.019l1.678.132a1.333,1.333,0,0,0,.978-.217.983.983,0,0,0,.362-.707,1.268,1.268,0,0,0-.421-.972l-3.56-.282.067-.838,4.379.346-.036.466-.4.3,0,.047a1.632,1.632,0,0,1,.291.534,1.754,1.754,0,0,1,.078.715A1.723,1.723,0,0,1,1092.022,311.625Z" transform="translate(0.421 17.637)"/><path class="a" d="M1089.2,305.256a.553.553,0,0,0-.352.45l-.021.09-.181-.047.185-.724a1.2,1.2,0,0,1,.227-.5.559.559,0,0,1,.375-.168l.013-.045a1.355,1.355,0,0,1-.24-.53,1.424,1.424,0,0,1,.022-.684.932.932,0,0,1,.274-.509,1.4,1.4,0,0,1,.489-.212l.177.433a.611.611,0,0,0-.277.237,1.35,1.35,0,0,0-.179.417,1.066,1.066,0,0,0-.006.528,1.007,1.007,0,0,0,.238.447l3.349.858-.209.816-3.169-.813A1.461,1.461,0,0,0,1089.2,305.256Z" transform="translate(0.876 14.441)"/><path class="a" d="M1094.35,300.939a1.887,1.887,0,0,1-1.021.273,2.891,2.891,0,0,1-1.154-.268,2.954,2.954,0,0,1-.967-.676,1.9,1.9,0,0,1-.492-.93,1.668,1.668,0,0,1,.126-1.033,1.778,1.778,0,0,1,1.055-1.072,2.261,2.261,0,0,1,1.584.2l.333.17-1.151,2.588a2.254,2.254,0,0,0,1.308.213,1.06,1.06,0,0,0,.827-.647,1.384,1.384,0,0,0,.131-.754,1.941,1.941,0,0,0-.281-.743l.2-.115a2.025,2.025,0,0,1,.391.963,1.9,1.9,0,0,1-.178.974A1.836,1.836,0,0,1,1094.35,300.939Zm-2.474-2.983a.8.8,0,0,0-.693.5.707.707,0,0,0,0,.55,1.452,1.452,0,0,0,.408.564,2.715,2.715,0,0,0,.734.466l.8-1.793A2.614,2.614,0,0,0,1091.876,297.956Z" transform="translate(2.014 11.531)"/><path class="a" d="M1095.788,295.351a.431.431,0,0,1-.371-.062.54.54,0,0,1-.234-.326.465.465,0,0,1,.386-.6.557.557,0,0,1,.393.081.437.437,0,0,1,.21.312.55.55,0,0,1-.385.6Z" transform="translate(4.513 9.963)"/><path class="a" d="M1094.456,290.416l.6-.718,1.765,1.824-.24.288Zm.953-1.151.6-.72,1.765,1.826-.238.288Z" transform="translate(4.119 6.723)"/><path class="a" d="M1105.537,287.381a1.254,1.254,0,0,1-.762-.59l-1.626-2.4-.542.368-.21-.31.542-.368-.474-.7.072-.726.312-.209.785,1.159.929-.631.21.31-.928.629,1.628,2.4q.472.7,1.014.329a1.274,1.274,0,0,0,.287-.251,1.692,1.692,0,0,0,.189-.3l.182.1a2.175,2.175,0,0,1-.245.488,1.884,1.884,0,0,1-.513.478A1.113,1.113,0,0,1,1105.537,287.381Z" transform="translate(8.549 3.324)"/><path class="a" d="M1109.322,284.773a1.93,1.93,0,0,1-.991-.455,2.875,2.875,0,0,1-.969-2.106,1.923,1.923,0,0,1,.3-1.047,1.965,1.965,0,0,1,.874-.738,2,2,0,0,1,1.13-.184,1.952,1.952,0,0,1,.992.455,2.889,2.889,0,0,1,.967,2.106,1.942,1.942,0,0,1-.3,1.048,2.152,2.152,0,0,1-2.005.921Zm1.424-1.01a1.645,1.645,0,0,0,.086-.8,3.137,3.137,0,0,0-.274-.944,3.091,3.091,0,0,0-.539-.823,1.626,1.626,0,0,0-.661-.458.867.867,0,0,0-.662.028.855.855,0,0,0-.452.484,1.637,1.637,0,0,0-.084.8,3.047,3.047,0,0,0,.274.943,3.112,3.112,0,0,0,.537.824,1.646,1.646,0,0,0,.662.456.868.868,0,0,0,1.112-.513Z" transform="translate(11.319 2.081)"/><path class="a" d="M1114.757,282.763a1.637,1.637,0,0,1-.748-1.162l-.408-1.633a1.477,1.477,0,0,0-.3-.653.549.549,0,0,0-.564-.1l-.09.022-.045-.181.724-.181a1.178,1.178,0,0,1,.525-.04.514.514,0,0,1,.318.254,2.39,2.39,0,0,1,.246.67l.407,1.633a1.342,1.342,0,0,0,.519.858.974.974,0,0,0,.785.117,1.258,1.258,0,0,0,.787-.707l-.866-3.465.818-.2,1.064,4.262-.453.114-.407-.284-.047.011a1.6,1.6,0,0,1-.413.445,1.768,1.768,0,0,1-.653.3A1.723,1.723,0,0,1,1114.757,282.763Z" transform="translate(14.243 0.838)"/><path class="a" d="M1119.558,277.9a.552.552,0,0,0-.539-.192l-.092.008-.014-.187.746-.055a1.158,1.158,0,0,1,.542.059.542.542,0,0,1,.281.3l.047,0a1.367,1.367,0,0,1,.427-.4,1.384,1.384,0,0,1,.656-.2.925.925,0,0,1,.569.1,1.406,1.406,0,0,1,.357.4l-.352.307a.633.633,0,0,0-.313-.187,1.323,1.323,0,0,0-.453-.037,1.092,1.092,0,0,0-.5.162,1.023,1.023,0,0,0-.347.369l.252,3.448-.84.062-.238-3.262A1.431,1.431,0,0,0,1119.558,277.9Z" transform="translate(17.763 0.413)"/><path class="a" d="M1124.39,280.391a.431.431,0,0,1-.129-.352.556.556,0,0,1,.171-.366.463.463,0,0,1,.714.044.556.556,0,0,1,.123.382.443.443,0,0,1-.17.336.527.527,0,0,1-.363.109A.517.517,0,0,1,1124.39,280.391Z" transform="translate(20.745 1.691)"/></g></svg>