<svg xmlns="http://www.w3.org/2000/svg" width="19.693" height="19.697" viewBox="0 0 19.693 19.697"><defs><style>.a{fill:#c5b295;}</style></defs><path class="a" d="M19.541,5.791a7.2,7.2,0,0,0-.458-2.39A5.046,5.046,0,0,0,16.2.519,7.216,7.216,0,0,0,13.812.062C12.757.012,12.423,0,9.748,0S6.739.012,5.689.058A7.2,7.2,0,0,0,3.3.516,4.806,4.806,0,0,0,1.553,1.655,4.85,4.85,0,0,0,.417,3.4,7.216,7.216,0,0,0-.04,5.787C-.09,6.841-.1,7.176-.1,9.85s.012,3.009.058,4.059A7.2,7.2,0,0,0,.414,16.3a4.857,4.857,0,0,0,1.139,1.747A4.848,4.848,0,0,0,3.3,19.181a7.218,7.218,0,0,0,2.39.458c1.05.046,1.385.058,4.059.058s3.009-.011,4.059-.058a7.2,7.2,0,0,0,2.389-.458A5.038,5.038,0,0,0,19.076,16.3a7.221,7.221,0,0,0,.458-2.39c.046-1.05.058-1.385.058-4.059S19.587,6.841,19.541,5.791Zm-1.774,8.042a5.4,5.4,0,0,1-.339,1.828,3.267,3.267,0,0,1-1.87,1.87,5.419,5.419,0,0,1-1.828.338c-1.039.046-1.35.058-3.979.058s-2.944-.011-3.979-.058a5.4,5.4,0,0,1-1.828-.338A3.031,3.031,0,0,1,2.815,16.8a3.063,3.063,0,0,1-.735-1.131,5.418,5.418,0,0,1-.338-1.828c-.046-1.039-.058-1.351-.058-3.979s.011-2.944.058-3.979A5.4,5.4,0,0,1,2.08,4.052,2.994,2.994,0,0,1,2.819,2.92,3.057,3.057,0,0,1,3.95,2.186a5.421,5.421,0,0,1,1.828-.339c1.039-.046,1.351-.058,3.979-.058s2.944.012,3.979.058a5.4,5.4,0,0,1,1.828.339,3.028,3.028,0,0,1,1.131.735,3.062,3.062,0,0,1,.735,1.131,5.42,5.42,0,0,1,.339,1.828c.046,1.039.058,1.35.058,3.979S17.814,12.794,17.767,13.833Z" transform="translate(0.102 0)"/><path class="a" d="M129.239,124.281a5.06,5.06,0,1,0,5.06,5.06A5.061,5.061,0,0,0,129.239,124.281Zm0,8.342a3.282,3.282,0,1,1,3.282-3.282A3.283,3.283,0,0,1,129.239,132.623Z" transform="translate(-119.388 -119.49)"/><path class="a" d="M363.624,89.627a1.181,1.181,0,1,1-1.181-1.181A1.181,1.181,0,0,1,363.624,89.627Z" transform="translate(-347.332 -85.037)"/></svg>