<svg xmlns="http://www.w3.org/2000/svg" width="351" height="98.871" viewBox="0 0 351 98.871"><defs><style>.a{opacity:0.9;}.b{fill:#dbc6a6;}</style></defs><g class="a" transform="translate(300.313 -1015.649)"><path class="b" d="M267.906,1109.755c2.18-2.318,4.42-4.583,6.528-6.965,3.538-4,6.961-8.1,10.489-12.111,3.841-4.365,6.322-9.594,9.332-14.487,3.259-5.3,6.564-10.564,11.153-14.846a16.316,16.316,0,0,1,4.072-2.968,13.69,13.69,0,0,1,4.954-1.21c2.49-.129,3.764,1.229,3.993,3.711a9.154,9.154,0,0,1-2.112,6.639,83.8,83.8,0,0,1-7.986,8.981c-4.365,4.081-9,7.882-13.629,11.668a25.8,25.8,0,0,0-6.631,8.07c-1.552,2.944-3.356,5.755-5.047,8.626a1.77,1.77,0,0,0-.313,1.023c2.174-2.36,4.228-4.847,6.55-7.051,3.369-3.2,6.928-6.2,10.417-9.267a5.22,5.22,0,0,1,1.051-.638c1.556-.813,3.177-1.395,4.755-.18a4.533,4.533,0,0,1,1.609,4.935,21.84,21.84,0,0,1-2.6,5.666c-1.744,2.781-3.788,5.372-5.634,8.092a15.386,15.386,0,0,0-1.784,3.371,2.62,2.62,0,0,0,.128,2.226,2.408,2.408,0,0,0,2.225.24,18.68,18.68,0,0,0,4.705-2.933c3.075-2.919,5.922-6.079,8.87-9.132.415-.429.88-.81,1.322-1.214l.353.26a4.065,4.065,0,0,1-.451.978c-3.355,3.985-6.694,8.017-10.929,11.1a13.869,13.869,0,0,1-5.174,2.245c-2.158.455-3.537-.738-4.041-2.941a11.059,11.059,0,0,1,.928-7.2c1.693-3.721,4.543-6.6,7.017-9.753a16.369,16.369,0,0,0,2.02-3.073,2.26,2.26,0,0,0-.15-1.967,1.909,1.909,0,0,0-1.814-.082,39.568,39.568,0,0,0-5.738,3.924,103.767,103.767,0,0,0-17.863,20.127,1.7,1.7,0,0,1-1.162.667c-1.593.076-3.191.031-5.264.031l15.754-25.348-.093-.092c-.866,1.021-1.715,2.056-2.6,3.059-5.078,5.747-10.049,11.594-15.288,17.191-3.488,3.726-7.832,5.932-13.179,5.542a4.4,4.4,0,0,1-4.331-4.8,2.241,2.241,0,0,1,2.877-2.1,1.607,1.607,0,0,1,.954,2.792c-.7.753-1.151,1.5-.483,2.4s1.629.652,2.5.3a9.553,9.553,0,0,0,4.256-3.943c2.741-4.167,4.462-8.654,4.254-13.755-.089-2.178-.015-4.363-.015-6.977-.686.834-1.274,1.6-1.914,2.319-5.247,5.9-10.383,11.91-15.82,17.632a37.323,37.323,0,0,1-7.312,5.439,4.615,4.615,0,0,1-5.424-.171c-1.744-1.3-1.974-3.213-1.754-5.191.462-4.14,2.629-7.532,4.909-10.859,1.247-1.821,2.537-3.612,3.808-5.417l-.293-.24c-2.112,2.292-4.233,4.575-6.335,6.877-2.395,2.623-4.474,5.625-7.809,7.174a22.685,22.685,0,0,1-5.419,1.8,6.751,6.751,0,0,0-3.46,1.707,18.469,18.469,0,0,1-7.69,4.571,13.049,13.049,0,0,1-2.832.42c-3.135.078-5.021-1.494-5.387-4.615-.177-1.512-.03-3.063-.246-4.95a19.638,19.638,0,0,1-1.657,2.059c-1.976,1.892-3.954,3.79-6.047,5.547a10.031,10.031,0,0,1-3.115,1.668c-3.409,1.191-6.192-.687-6.465-4.281a11.661,11.661,0,0,1,1.857-7.182c1.945-3.079,4.141-6,6.246-8.979.464-.656.994-1.266,1.494-1.9l-.327-.3c-1.845,1.831-3.745,3.61-5.522,5.5-3.529,3.76-6.892,7.681-10.521,11.338a58.086,58.086,0,0,1-6.213,4.909,5.438,5.438,0,0,1-1.347.658c-4.324,1.673-7.473-.736-6.993-5.328.418-4,2.4-7.337,4.51-10.611,1.014-1.573,2.108-3.093,3.158-4.643a2.567,2.567,0,0,0,.524-1.35c-2.532,2.913-4.995,5.891-7.613,8.724-3.375,3.65-6.8,7.265-10.363,10.724a12.863,12.863,0,0,1-4.416,2.65c-3.455,1.281-5.723-.384-5.934-4.067a11.452,11.452,0,0,1,1.971-7.278c2.068-3,4.4-5.822,6.6-8.73a8.638,8.638,0,0,0,1.429-2.152,3.266,3.266,0,0,0,.074-2.385c-.565-.965-1.654-.39-2.31.06a56.032,56.032,0,0,0-6.354,4.726,101.811,101.811,0,0,0-16.807,19.24,1.3,1.3,0,0,1-.823.581c-1.184.068-2.374.032-3.562.034h-2.011l15.764-25.359-.068-.107q-.454.517-.908,1.033c-4.868,5.568-9.641,11.223-14.635,16.676a41.207,41.207,0,0,1-13.275,9.975,2.713,2.713,0,0,0-1.02,1.187c-4.253,7.753-8.949,15.2-15.306,21.432a36.111,36.111,0,0,1-5.5,4.255,6.161,6.161,0,0,1-5.865.823c-2.581-1.058-3.458-3.777-2.45-7.133.892-2.968,2.9-5.142,5.156-7.113,5.158-4.511,11.136-7.8,17.05-11.145a8.968,8.968,0,0,0,4.149-4.414c1.582-3.63,3.443-7.137,5.023-10.835-.276.341-.527.706-.832,1.018-2.484,2.538-4.875,5.18-7.516,7.544a11.794,11.794,0,0,1-4.326,2.235c-3.891,1.206-7.017-1.073-7.362-5.374a43.761,43.761,0,0,1,.219-5.849c.034-.62.171-1.235.26-1.852l-.356-.274c-.487.448-.991.878-1.458,1.345-3.064,3.063-6.009,6.258-9.23,9.145a15.31,15.31,0,0,1-5.209,2.887c-3.162,1.078-5.774-.956-5.932-4.274a12.14,12.14,0,0,1,1.587-6.712c1.751-3.039,3.727-5.949,5.626-8.9a10.545,10.545,0,0,0,1.433-2.614c-1.54,1.641-3.091,3.271-4.616,4.926s-3.023,3.335-4.533,5l-.4-.236a3.133,3.133,0,0,1,.371-1.079q5.152-5.866,10.366-11.678a1.525,1.525,0,0,1,.932-.449c1.682-.131,3.368-.2,5.327-.308-.993,1.653-1.892,3.153-2.793,4.651-2.966,4.928-5.949,9.846-8.885,14.792a13.3,13.3,0,0,0-1.429,3.1c-.621,2.2.713,3.495,2.847,2.689a13.628,13.628,0,0,0,4.391-2.426,135.032,135.032,0,0,0,9.8-9.721c4.37-4.92,9.156-9.214,15.358-11.6a21.769,21.769,0,0,1,6.355-1.426c3.284-.208,4.878,1.565,4.838,4.857a14.594,14.594,0,0,0,.03,2.864q1-1.7,2-3.4a1.574,1.574,0,0,0,.192-.361c.772-2.871,2.8-3.7,5.533-3.477a18.006,18.006,0,0,0,2.271-.118l-16,26.488.235.316a28.118,28.118,0,0,0,4.256-2.506,123.845,123.845,0,0,0,9.938-8.973c4.022-4.23,7.653-8.83,11.517-13.214,3.232-3.668,5.481-7.963,7.929-12.131,3.289-5.6,6.644-11.165,11.205-15.836a25.38,25.38,0,0,1,5.819-4.471,11.093,11.093,0,0,1,4.991-1c2.025-.039,3.1,1.206,3.413,3.238a9.135,9.135,0,0,1-1.333,6.03c-2.475,4.357-6.014,7.81-9.714,11.076-4.381,3.868-8.9,7.583-13.372,11.343a20.569,20.569,0,0,0-5.07,6.031c-2,3.722-4.213,7.329-6.213,11.1.771-.85,1.537-1.7,2.313-2.548,4.169-4.544,8.285-9.15,13.254-12.857a17.988,17.988,0,0,1,4.166-2.3,3.257,3.257,0,0,1,4.3,1.889,5.861,5.861,0,0,1-.2,5.666c-1.8,3.007-3.79,5.906-5.714,8.84-.926,1.412-1.932,2.773-2.81,4.213a10.257,10.257,0,0,0-1.086,2.5c-.427,1.5.353,2.447,1.858,2.057a9.181,9.181,0,0,0,3.77-1.784,101.562,101.562,0,0,0,8.811-8.593c5.674-6.5,11.119-13.192,16.642-19.819.607-.728,1.108-1.544,1.895-2.653-1.183,0-2.061.049-2.929-.025-.325-.028-.626-.341-.938-.524.307-.195.612-.391.922-.582a.2.2,0,0,1,.135,0c2.746.659,4.1-.892,5.222-3.093.952-1.863,2.163-3.6,3.294-5.364.2-.313.55-.706.864-.739,1.711-.176,3.433-.251,5.473-.381l-6.133,9.488c.7.034,1.224.079,1.744.081,2.879.007,5.757-.019,8.635.031.395.007.783.371,1.174.57a3.582,3.582,0,0,1-1.213.521c-3.335.043-6.671,0-10.006.055a1.977,1.977,0,0,0-1.45.664c-4.989,7.916-9.963,15.841-14.839,23.826a36.13,36.13,0,0,0-2.715,5.818c-.708,1.828.1,2.912,2,2.491a10.859,10.859,0,0,0,4.666-2.07c3.406-2.952,6.628-6.126,9.791-9.343,4.093-4.162,8.071-8.438,12.066-12.7a3.335,3.335,0,0,1,2.665-1.065c1.182.005,2.365-.133,3.87-.23-1.189,1.812-2.282,3.4-3.3,5.042-3.3,5.31-6.594,10.621-9.829,15.969-.758,1.253-1.5,2.771-.106,4,1.288,1.138,2.7.263,3.936-.379a29.283,29.283,0,0,0,8.018-6.771,83.565,83.565,0,0,0,11.537-16.277,2.208,2.208,0,0,1,1.391-1c1.7-.271,3.42-.369,5.385-.557-1.793,2.7-3.556,5.134-5.088,7.707-2.588,4.346-5.068,8.757-7.507,13.189-.654,1.188-1.23,2.636-.14,3.851,1.067,1.188,2.536.795,3.861.414,4.876-1.4,8.451-4.567,11.406-8.536a21.122,21.122,0,0,0,4.122-11.982,14.215,14.215,0,0,1,.416-2.836,2.23,2.23,0,0,1,2.788-1.777,2.129,2.129,0,0,1,1.806,2.5,19.814,19.814,0,0,1-3.531,9.1c-1.628,2.5-3.541,4.821-5.407,7.328.716-.135,1.533-.22,2.31-.446a15.236,15.236,0,0,0,7.2-4.538c3.871-4.316,7.707-8.663,11.579-12.977a1.94,1.94,0,0,1,1.108-.645c1.676-.161,3.363-.223,5.318-.337-.322.564-.543.972-.781,1.369q-5.607,9.332-11.207,18.667a6.234,6.234,0,0,0-.971,2.242,3.732,3.732,0,0,0,.347,2.624,2.7,2.7,0,0,0,2.478.272,18.9,18.9,0,0,0,5.033-2.945c3.135-2.849,6.108-5.892,8.99-9,4.251-4.585,8.368-9.295,12.534-13.958.27-.3.462-.671.713-.991a11.12,11.12,0,0,1,1.3-1.57,2,2,0,0,1,2.732-.055,1.925,1.925,0,0,1-.7,2.721,3,3,0,0,1-1.212.6c-1.761.258-2.08,1.537-1.931,2.91.3,2.8.76,5.587,1.194,8.373.147.944.459,1.862.621,2.8a8.064,8.064,0,0,1-2.155,7.218Zm-152.955-16.318c0-3.423-1.283-4.636-3.808-4.088a12.953,12.953,0,0,0-4.379,1.79,30.133,30.133,0,0,0-10.784,13.477,20.119,20.119,0,0,0-1.476,5.509c-.325,2.663,1.376,4.03,3.9,3.137a16.417,16.417,0,0,0,4.63-2.523,37.848,37.848,0,0,0,10.286-12.971A36.386,36.386,0,0,0,114.951,1093.437Zm26.634-3.265.243.235c2.189-1.921,4.429-3.787,6.554-5.775,4.493-4.2,9.049-8.348,13.336-12.754a20.711,20.711,0,0,0,5.5-9.645c.742-3.122-.951-4.731-4.007-3.739a7.564,7.564,0,0,0-2.5,1.361,29.319,29.319,0,0,0-3.5,3.443c-4.355,5.165-7.459,11.117-10.558,17.066C144.944,1083.626,143.27,1086.9,141.585,1090.172Zm148.873.087.225.17c.4-.335.8-.664,1.187-1.006,3.769-3.31,7.636-6.516,11.273-9.965,3.1-2.94,6.053-6.06,8.853-9.289a17.788,17.788,0,0,0,4.2-8.344c.509-2.679-.919-4.191-3.542-3.435a10.1,10.1,0,0,0-3.962,2.27,26.4,26.4,0,0,0-4.635,5.356c-3.611,5.956-7,12.047-10.428,18.113C292.5,1086.129,291.51,1088.212,290.458,1090.258ZM104.043,1119.22l-.281-.3c-1.977,1.187-3.966,2.354-5.928,3.565-4.471,2.76-8.835,5.673-12.345,9.654-2.129,2.414-3.7,5.086-3.444,8.5.168,2.234,1.264,3.245,3.44,2.613a11.153,11.153,0,0,0,4.261-2.274C96.394,1134.966,100.371,1127.183,104.043,1119.22Z" transform="translate(-267.777 -30.13)"/><path class="b" d="M750.034,1104.156a3.6,3.6,0,0,1-3.286,3.57,2.334,2.334,0,0,1-2.272-2.553,3.53,3.53,0,0,1,3.445-3.532A2.241,2.241,0,0,1,750.034,1104.156Z" transform="translate(-758.356 -62.415)"/><path class="b" d="M143.088,1105.32a3.484,3.484,0,0,1,3.261-3.679,2.2,2.2,0,0,1,2.26,2.374,3.62,3.62,0,0,1-3.287,3.71A2.226,2.226,0,0,1,143.088,1105.32Z" transform="translate(-321.841 -62.417)"/><path class="b" d="M-170.006,1016.578a9.153,9.153,0,0,0-4.053.927c-2.779,1.64-5.348,3.634-8.049,5.412-2.2,1.445-4.313,3.174-6.727,4.085a22.233,22.233,0,0,1-14.261.654,4.529,4.529,0,0,0-1.655.186s-1.012.235-.011.638c2.524,1.18,5.3,1.16,8.009,1.1,2.764-.059,5.52-.514,8.409-.81-12.924,10.181-21.656,23.334-27.933,38.3a9.181,9.181,0,0,1,.017-1.789c.341-5.048.975-10.1.946-15.143a42.365,42.365,0,0,0-4.7-19.523c-.869-1.671-2.277-3.284-2.461-5.027-.188-1.783.777-3.706,1.323-5.542.408-1.37.63-2.674-.266-3.892a1.274,1.274,0,0,0-.131-.172c-.7-.766-.822,0-.822,0l-2.631,7.8c-.918-.642-1.835-1.312-2.764-1.975-4.05-2.575-12.17-6.595-21.787-5.217-1.862.462-3.765.8-5.574,1.412-.284.1-.565.2-.845.3l-.517.2a28.659,28.659,0,0,0-18.433,25.236c-.417,8.971,6.622,17.028,16.276,16.037,8.966-.921,14.99-7.767,17.349-14.093a2.254,2.254,0,0,0,.191-.929.919.919,0,0,0-.419-.594c-.087-.055-.426.131-.524.288a9.09,9.09,0,0,0-.6,1.228,22.427,22.427,0,0,1-5.224,7.627c-6.056,5.689-14.508,4.743-19.124-2.16-7.362-11.009-1.5-27.188,11.372-31.341,11.046-3.565,22.073,1.847,28.32,10.522a1.565,1.565,0,0,1,.164,1.239c-4.312,12.381-10.142,23.943-18.69,33.985-5.43,6.38-11.7,11.7-19.787,14.429-10.222,3.446-19.48,1.655-27.454-5.673-3.811-3.5-5.867-7.9-5.189-13.237a4.663,4.663,0,0,1,3.3-3.989,10.639,10.639,0,0,0,3.1-1.647,3.768,3.768,0,0,0,.332-4.982,3.111,3.111,0,0,0-4.638.1,13.946,13.946,0,0,0-2.591,4.406c-.029.078-.052.158-.08.237l0-.007s-2.485,6.861-1.005,13.6l0,0,.01.043a17.053,17.053,0,0,0,.619,2.124,18.347,18.347,0,0,0,2.964,5.779,18.685,18.685,0,0,0,10.843,7.433c7.452,2.079,14.675.814,21.591-2.356,8.338-3.822,14.773-9.989,20.426-17.039,7.334-9.145,12.856-19.372,17.7-29.991.191-.419.4-.828.686-1.4.5.793.873,1.362,1.219,1.949,4.144,7.028,5.693,14.753,6.037,22.781.282,6.56-.531,12.9-3.757,18.793a27.168,27.168,0,0,0-2.1,5.486c-.575,1.983.671,3.209,2.626,2.609a2.717,2.717,0,0,0,1.525-1.543c.557-1.681.869-3.444,1.277-5.174,1.035-4.384,1.592-8.885,3.577-13.025A104.784,104.784,0,0,1-198,1040.41c6.224-6.931,13.411-12.467,22.4-15.433a35.96,35.96,0,0,0,5.672-2.688,3.853,3.853,0,0,0,1.982-3.4C-167.88,1017.434-168.565,1016.5-170.006,1016.578Z" transform="translate(0 0)"/></g></svg>