<svg xmlns="http://www.w3.org/2000/svg" width="20.588" height="18.095" viewBox="0 0 20.588 18.095"><defs><style>.a{fill:#c5b295;}</style></defs><path class="a" d="M6.633,12.064H17.572a.6.6,0,0,0,.58-.437l2.413-8.444a.6.6,0,0,0-.58-.769H5.242L4.811.472A.6.6,0,0,0,4.222,0H.6a.6.6,0,0,0,0,1.206H3.738l2.178,9.8a1.809,1.809,0,0,0,.719,3.47H17.572a.6.6,0,0,0,0-1.206H6.635a.6.6,0,0,1,0-1.206ZM19.185,3.619l-2.068,7.238h-10L5.51,3.619Zm0,0" transform="translate(0 0)"/><path class="a" d="M150,361.81a1.809,1.809,0,1,0,1.809-1.81A1.812,1.812,0,0,0,150,361.81Zm1.809-.6a.6.6,0,1,1-.6.6A.6.6,0,0,1,151.809,361.206Zm0,0" transform="translate(-143.968 -345.524)"/><path class="a" d="M362,361.81A1.81,1.81,0,1,0,363.81,360,1.812,1.812,0,0,0,362,361.81Zm1.809-.6a.6.6,0,1,1-.6.6A.6.6,0,0,1,363.81,361.206Zm0,0" transform="translate(-347.444 -345.524)"/></svg>