<svg xmlns="http://www.w3.org/2000/svg" width="16.494" height="16.494" viewBox="0 0 16.494 16.494"><defs><style>.a{fill:#c5b295;}</style></defs><path class="a" d="M8.247,16.494A8.247,8.247,0,1,0,0,8.247,8.25,8.25,0,0,0,8.247,16.494Zm3.348-4.36h0c-.555,0-2.306-1.944-7.23-.935a2.123,2.123,0,0,1-.4.087A.546.546,0,0,1,3.9,10.2a10.618,10.618,0,0,1,7.881.871.553.553,0,0,1-.182,1.06Zm.9-2.181c-.078-.021-.055.047-.41-.14a10.777,10.777,0,0,0-7.934-.978,1.366,1.366,0,0,1-.4.087.676.676,0,0,1-.129-1.333A12.047,12.047,0,0,1,12.76,8.65a.694.694,0,0,1,.376.655A.645.645,0,0,1,12.491,9.954ZM3.126,4.809A15.3,15.3,0,0,1,13.863,5.894a.809.809,0,0,1-.342,1.526h0a.766.766,0,0,1-.43-.13c-2.366-1.413-6.6-1.752-9.34-.987a1.6,1.6,0,0,1-.43.086A.767.767,0,0,1,2.547,5.6a.786.786,0,0,1,.579-.794Z"/></svg>