<svg xmlns="http://www.w3.org/2000/svg" width="19.937" height="16.198" viewBox="0 0 19.937 16.198"><defs><style>.a{fill:#c5b295;}</style></defs><g transform="translate(0 0)"><path class="a" d="M19.937,49.918a8.521,8.521,0,0,1-2.355.645,4.064,4.064,0,0,0,1.8-2.259,8.168,8.168,0,0,1-2.592.989,4.087,4.087,0,0,0-7.07,2.795,4.208,4.208,0,0,0,.095.932,11.569,11.569,0,0,1-8.425-4.275,4.088,4.088,0,0,0,1.256,5.463A4.036,4.036,0,0,1,.8,53.7v.045a4.106,4.106,0,0,0,3.275,4.016A4.079,4.079,0,0,1,3,57.9a3.614,3.614,0,0,1-.774-.07,4.126,4.126,0,0,0,3.819,2.847A8.213,8.213,0,0,1,.978,62.42,7.658,7.658,0,0,1,0,62.364,11.507,11.507,0,0,0,6.27,64.2,11.553,11.553,0,0,0,17.9,52.568c0-.181-.006-.355-.015-.528A8.154,8.154,0,0,0,19.937,49.918Z" transform="translate(0 -48)"/></g></svg>